<svg width="80" height="80" viewBox="0 0 80 80" fill="none" xmlns="http://www.w3.org/2000/svg">
<path d="M48.3824 29.565L45.4993 29.1451C45.4109 29.1451 45.3225 29.1451 45.3225 29.2333L44.1019 30.7993C44.0322 30.9015 44.0009 31.0249 44.0135 31.1478C44.0135 31.2359 43.9251 31.4123 43.841 31.3241L42.8771 31.0638C42.7045 31.0638 42.5278 31.0638 42.4562 31.2359L38.5251 36.274C38.4367 36.3621 38.3483 36.3621 38.1757 36.3621L36.69 35.6652C36.6269 35.6257 36.554 35.6048 36.4795 35.6048C36.4051 35.6048 36.3321 35.6257 36.2691 35.6652L35.4441 36.1942C35.3815 36.2347 35.3084 36.2562 35.2337 36.2562C35.159 36.2562 35.0859 36.2347 35.0233 36.1942L34.6739 36.0221C34.617 35.9964 34.5554 35.9829 34.493 35.9822C34.4306 35.9816 34.3688 35.9939 34.3114 36.0184C34.254 36.0429 34.2023 36.079 34.1597 36.1244C34.117 36.1699 34.0843 36.2237 34.0636 36.2824L33.7985 37.4999C33.767 37.6292 33.7755 37.765 33.8228 37.8893C33.8701 38.0137 33.9541 38.1209 34.0636 38.1968L34.7623 38.6167L36.5932 39.7502L37.4686 40.2708C37.5915 40.3428 37.7344 40.3735 37.8761 40.3584C38.0178 40.3433 38.1508 40.2831 38.2557 40.1869L39.7373 38.877C39.8648 38.8045 40.0124 38.7751 40.1581 38.793L40.579 39.0533C40.7516 39.1415 40.9284 39.1415 40.9999 38.9651L41.7828 38.2682C41.8366 38.2141 41.9052 38.177 41.98 38.1613C42.0548 38.1456 42.1326 38.1522 42.2037 38.18L43.3401 38.7048C43.4277 38.7335 43.521 38.7404 43.612 38.7251C43.7029 38.7097 43.7887 38.6725 43.862 38.6167L44.3881 37.9197L48.3192 32.8817C48.4918 32.6172 48.4034 32.2687 48.0541 32.2687L47.2291 32.084C47.0524 32.084 46.9682 31.8237 47.0524 31.6642L48.4497 30.01C48.6433 29.8337 48.5549 29.565 48.3824 29.565Z" fill="white"/>
<path d="M35.2802 39.7671C35.1918 39.6789 35.1077 39.7671 35.1077 39.8553L35.5286 40.9846V41.2491L35.1792 42.727C35.1732 42.7748 35.1781 42.8234 35.1934 42.8692C35.2086 42.915 35.234 42.9567 35.2676 42.9915L36.3156 43.7724C36.364 43.8146 36.426 43.8379 36.4903 43.8379C36.5545 43.8379 36.6166 43.8146 36.665 43.7724L37.8014 42.8151C37.8354 42.7817 37.8765 42.7564 37.9217 42.7411C37.9669 42.7259 38.015 42.721 38.0623 42.727L39.2871 42.5548C39.3713 42.5548 39.3713 42.4667 39.2871 42.3785L35.2802 39.7671Z" fill="white"/>
<path d="M34.9306 43.5119C34.9158 43.4911 34.8962 43.4741 34.8735 43.4624C34.8508 43.4507 34.8257 43.4446 34.8001 43.4446C34.7746 43.4446 34.7494 43.4507 34.7267 43.4624C34.704 43.4741 34.6844 43.4911 34.6696 43.5119L33.7942 43.9317C33.7827 43.9317 33.7714 43.934 33.761 43.9385C33.7505 43.9429 33.741 43.9495 33.7331 43.9577C33.7252 43.966 33.7191 43.9758 33.7151 43.9864C33.7112 43.9971 33.7094 44.0085 33.71 44.0199L31.7865 48.722H31.8749L32.2958 48.5499V48.6339L30.8984 50.901C30.8984 50.9892 30.8984 50.9892 30.9826 50.9892L35.8734 46.0225C35.9618 46.0225 35.9618 45.9343 35.9618 45.8461L36.0502 44.5405C36.0502 44.4523 36.0502 44.3683 35.9618 44.3683L34.9306 43.5119Z" fill="white"/>
<path d="M29.9976 80.0001L28.0615 76.3853L31.4287 74.0552L32.0768 74.9578L31.012 75.6757C30.8301 75.8062 30.6403 75.9254 30.4438 76.0326C30.2661 76.1334 30.0803 76.2191 29.8882 76.2887L33.5079 77.162L33.2595 78.1864L29.6315 77.3089C29.7267 77.4065 29.8153 77.5102 29.8966 77.6196C29.9766 77.7246 30.0523 77.8379 30.1281 77.9597L30.3596 78.3795L30.9741 79.5047L29.9976 80.0001Z" fill="#FFCD1E"/>
<path d="M14.1385 66.1875C14.7152 65.5283 15.6327 65.4611 16.4534 66.1875L18.137 67.6611L14.7699 71.4942L13.4314 70.2893C12.556 69.5252 12.2361 68.7233 12.8506 68.0179C12.983 67.8522 13.1613 67.7289 13.3633 67.6632C13.5652 67.5976 13.7821 67.5924 13.987 67.6485C13.8359 67.4261 13.7683 67.1577 13.796 66.8904C13.8237 66.6232 13.945 66.3743 14.1385 66.1875ZM15.3423 69.3866L14.6604 68.7946C14.2395 68.421 13.8776 68.316 13.6587 68.5679C13.4398 68.8198 13.5914 69.1515 14.0249 69.5252L14.7025 70.1171L15.3423 69.3866ZM14.7951 66.9012C14.4963 67.2454 14.6562 67.6653 15.1276 68.0767L15.9021 68.7485L16.7817 67.7451L16.0073 67.0733C15.5359 66.6619 15.0982 66.5527 14.7951 66.9012Z" fill="white"/>
<path d="M6.55396 62.686L8.87729 60.9227C9.94636 60.1082 11.1712 60.125 11.9582 61.1536C12.7453 62.1822 12.4338 63.3662 11.3648 64.1764L9.04143 65.9398L8.4564 65.1757L10.8723 63.3368C11.0027 63.2576 11.115 63.152 11.2019 63.0267C11.2888 62.9015 11.3484 62.7595 11.3767 62.6098C11.4051 62.4602 11.4016 62.3063 11.3666 62.158C11.3315 62.0098 11.2656 61.8706 11.1731 61.7494C11.0806 61.6282 10.9637 61.5277 10.8298 61.4545C10.6959 61.3812 10.5481 61.3369 10.396 61.3242C10.2438 61.3116 10.0907 61.331 9.94655 61.3812C9.80239 61.4313 9.6704 61.5111 9.55913 61.6154L7.139 63.4501L6.55396 62.686Z" fill="white"/>
<path d="M8.94888 56.7536L4.43692 59.1257L3.98657 58.286L8.50695 55.9014L8.94888 56.7536Z" fill="white"/>
<path d="M5.17348 50.2587L6.09104 49.9438L7.07592 52.7861L2.24829 54.4655L1.93262 53.5545L5.8385 52.211L5.17348 50.2587Z" fill="white"/>
<path d="M2.19362 42.9536C3.59098 42.7605 4.84945 43.5624 5.08094 45.2376L5.31244 46.9169L0.261726 47.6096L0.0344403 45.9303C-0.201259 44.209 0.800467 43.1426 2.19362 42.9536ZM2.3241 43.9067C2.11939 43.925 1.92061 43.9849 1.73997 44.0827C1.55934 44.1805 1.40066 44.3141 1.27371 44.4753C1.14677 44.6366 1.05424 44.822 1.00181 45.0202C0.949373 45.2185 0.938147 45.4253 0.968822 45.628L1.08667 46.5097L4.21811 46.0898L4.09605 45.2124C4.07113 45.009 4.005 44.8128 3.9017 44.6357C3.79839 44.4585 3.66006 44.3042 3.49511 44.1821C3.33017 44.06 3.14204 43.9726 2.94218 43.9252C2.74232 43.8779 2.53489 43.8716 2.33251 43.9067H2.3241Z" fill="white"/>
<path d="M0.737383 30.4047L1.6928 30.5936L1.43185 31.8951L5.48505 32.7012L5.29564 33.6458L1.24245 32.8397L0.981494 34.137L0.0302734 33.9481L0.737383 30.4047Z" fill="white"/>
<path d="M3.52359 22.684L8.22916 24.653L7.85458 25.5431L5.94793 24.7454L5.10615 26.7438L7.01279 27.5415L6.63819 28.4273L1.93262 26.4583L2.3072 25.5682L4.20965 26.3659L5.05143 24.3675L3.14899 23.5698L3.52359 22.684Z" fill="white"/>
<path d="M7.00025 18.6492L7.90517 19.2621L8.91952 17.7675L9.72342 18.3091L8.70907 19.8037L9.61399 20.4167L10.8346 18.624L11.6385 19.1656L9.87494 21.756L5.66602 18.9011L7.42534 16.3107L8.22925 16.8565L7.00025 18.6492Z" fill="white"/>
<path d="M17.1733 13.3046L14.0503 9.27835L16.5336 7.36389L17.127 8.128L15.4098 9.45468L16.0832 10.3195L17.5142 9.21117L18.1119 9.97948L16.6724 11.092L17.9351 12.721L17.1733 13.3046Z" fill="white"/>
<path d="M23.5708 3.36707L24.8797 5.96586C25.4816 7.1624 25.2417 8.35893 24.0843 8.94251C22.9268 9.52608 21.8156 9.00129 21.2138 7.80055L19.9048 5.21435L20.7676 4.79451L22.1313 7.49827C22.1965 7.6259 22.2863 7.73947 22.3955 7.8325C22.5048 7.92552 22.6313 7.99617 22.7679 8.04042C22.9045 8.08467 23.0485 8.10165 23.1916 8.09038C23.3348 8.07912 23.4744 8.03984 23.6023 7.97478C23.7303 7.90972 23.8441 7.82016 23.9374 7.71121C24.0307 7.60226 24.1015 7.47606 24.1458 7.33981C24.1902 7.20355 24.2072 7.05991 24.1959 6.9171C24.1847 6.77428 24.1453 6.63509 24.08 6.50745L22.7164 3.7995L23.5708 3.36707Z" fill="white"/>
<path d="M30.8142 0.990845L31.071 1.92288L29.8083 2.27555L30.9068 6.25141L29.9724 6.50331L28.8781 2.53165L27.6154 2.88431L27.3545 1.94808L30.8142 0.990845Z" fill="white"/>
<path d="M38.8618 0L39.0723 2.90108C39.1691 4.23616 38.483 5.24797 37.1909 5.34033C35.8987 5.4327 35.0864 4.53005 34.9812 3.19076L34.7708 0.293885L35.7346 0.222513L35.9493 3.24534C35.942 3.39945 35.9675 3.55335 36.0242 3.69689C36.0809 3.84044 36.1674 3.97037 36.2781 4.07811C36.3888 4.18586 36.5211 4.26897 36.6664 4.32198C36.8116 4.37498 36.9665 4.39667 37.1208 4.38562C37.275 4.37456 37.4252 4.33101 37.5614 4.25784C37.6975 4.18467 37.8166 4.08353 37.9107 3.96111C38.0048 3.83869 38.0719 3.69775 38.1074 3.5476C38.1429 3.39745 38.1462 3.24149 38.1169 3.09L37.898 0.0671739L38.8618 0Z" fill="white"/>
<path d="M45.1247 5.5297L44.2114 3.69921L43.6347 3.62784L43.4201 5.30719L42.4604 5.18124L43.1128 0.143188L44.91 0.3741C46.219 0.542035 46.7325 1.32713 46.5936 2.30535C46.5531 2.66178 46.3993 2.99592 46.1547 3.25883C45.9101 3.52174 45.5875 3.69961 45.2341 3.76639L46.2779 5.68504L45.1247 5.5297ZM43.761 2.66641L44.7206 2.78817C44.8222 2.81018 44.9271 2.81171 45.0292 2.79266C45.1313 2.77361 45.2286 2.73436 45.3152 2.67724C45.4019 2.62012 45.4763 2.54628 45.5339 2.46006C45.5915 2.37383 45.6313 2.27698 45.6508 2.1752C45.664 2.06995 45.6545 1.96311 45.623 1.86179C45.5916 1.76047 45.5389 1.667 45.4684 1.58757C45.3979 1.50814 45.3113 1.44459 45.2143 1.40113C45.1173 1.35767 45.0122 1.33531 44.9058 1.33553L43.9462 1.21378L43.761 2.66641Z" fill="white"/>
<path d="M51.4928 2.79607L51.1519 3.83306L52.8692 4.39984L52.5661 5.31929L50.8489 4.75251L50.508 5.78951L52.5703 6.46964L52.2799 7.38909L49.3042 6.40667L50.8994 1.57434L53.8793 2.55256L53.5763 3.4762L51.4928 2.79607Z" fill="white"/>
<path d="M65.0328 7.64124L65.3106 11.7305L61.2658 12.4694L61.0469 11.3736L62.3096 11.1553C62.5411 11.1133 62.7642 11.0797 62.9746 11.0629C63.1777 11.0461 63.3818 11.0461 63.5849 11.0629L60.6387 8.77899L61.2868 7.93932L64.2331 10.2232C64.1856 10.0961 64.1476 9.96557 64.1195 9.83279C64.0873 9.69457 64.0648 9.55429 64.0521 9.41295C64.0521 9.2744 64.0184 9.11486 64.0058 8.94693L63.909 7.68742L65.0328 7.64124Z" fill="#FFCD1E"/>
<path d="M71.8936 26.1559L72.9543 24.4094L72.7101 23.8846L71.1697 24.5983L70.7488 23.725L75.3786 21.5839L76.1446 23.2212C76.7002 24.4136 76.3088 25.2658 75.4165 25.6815C75.0923 25.8376 74.7265 25.886 74.3727 25.8195C74.019 25.753 73.6959 25.5751 73.4509 25.312L72.3818 27.2181L71.8936 26.1559ZM73.5772 23.4773L73.9981 24.3506C74.0336 24.4483 74.0883 24.5379 74.1591 24.6141C74.23 24.6903 74.3154 24.7515 74.4104 24.7942C74.5053 24.8368 74.6079 24.8601 74.7121 24.8625C74.8162 24.8649 74.9198 24.8464 75.0166 24.8082C75.1115 24.7625 75.1957 24.6972 75.2634 24.6167C75.3312 24.5361 75.381 24.4421 75.4097 24.3409C75.4383 24.2398 75.4451 24.1337 75.4296 24.0297C75.4141 23.9256 75.3766 23.8261 75.3197 23.7376L74.8988 22.8644L73.5772 23.4773Z" fill="white"/>
<path d="M76.9651 34.2757C76.453 34.3877 75.9191 34.346 75.4307 34.1559C74.9423 33.9657 74.5213 33.6357 74.2206 33.2073C73.92 32.7789 73.7531 32.2713 73.7412 31.7485C73.7292 31.2256 73.8726 30.711 74.1534 30.2694C74.4341 29.8277 74.8396 29.4788 75.3188 29.2667C75.798 29.0545 76.3294 28.9885 76.8461 29.0771C77.3628 29.1656 77.8416 29.4048 78.2223 29.7643C78.603 30.1239 78.8685 30.5877 78.9853 31.0975C79.1397 31.7862 79.0136 32.5079 78.6348 33.1038C78.256 33.6998 77.6554 34.1213 76.9651 34.2757ZM76.7504 33.3353C77.0735 33.2582 77.3666 33.0875 77.5926 32.8446C77.8187 32.6017 77.9676 32.2976 78.0208 31.9704C78.0739 31.6433 78.0287 31.3078 77.8911 31.0061C77.7534 30.7045 77.5294 30.4503 77.2471 30.2754C76.9649 30.1006 76.6371 30.0129 76.305 30.0235C75.973 30.0341 75.6514 30.1424 75.381 30.3349C75.1105 30.5274 74.9032 30.7954 74.7852 31.1052C74.6671 31.415 74.6435 31.7527 74.7175 32.0758C74.7661 32.2929 74.8575 32.4983 74.9863 32.68C75.1152 32.8616 75.2789 33.0159 75.4681 33.1339C75.6572 33.2518 75.868 33.3311 76.0881 33.3672C76.3083 33.4032 76.5334 33.3952 76.7504 33.3437V33.3353Z" fill="white"/>
<path d="M76.1696 41.6185L75.2941 42.0006C74.8942 41.5503 74.6675 40.973 74.6544 40.3716C74.6489 40.0215 74.7125 39.6738 74.8417 39.3482C74.9709 39.0226 75.1632 38.7257 75.4074 38.4742C75.6517 38.2227 75.9432 38.0217 76.2654 37.8827C76.5875 37.7436 76.934 37.6692 77.285 37.6637C77.6359 37.6581 77.9846 37.7216 78.311 37.8505C78.6373 37.9794 78.9351 38.1712 79.1872 38.4148C79.4392 38.6585 79.6407 38.9493 79.7802 39.2706C79.9196 39.592 79.9942 39.9375 79.9997 40.2876C80.0088 40.8877 79.8028 41.4714 79.4189 41.9334L78.5308 41.5807C78.8565 41.2428 79.0351 40.79 79.0274 40.3212C79.011 40.0491 78.9284 39.785 78.7867 39.5518C78.645 39.3186 78.4485 39.1234 78.2142 38.9829C77.9799 38.8424 77.7148 38.761 77.4419 38.7456C77.169 38.7302 76.8964 38.7814 76.6477 38.8946C76.3991 39.0079 76.1818 39.1798 76.0147 39.3956C75.8475 39.6114 75.7356 39.8645 75.6885 40.1331C75.6414 40.4017 75.6607 40.6777 75.7445 40.9372C75.8283 41.1968 75.9742 41.432 76.1696 41.6227V41.6185Z" fill="white"/>
<path d="M73.6653 49.0833L73.9052 47.8868L76.4642 46.4467L74.2756 46.0269L74.465 45.0823L79.4694 46.0689L79.28 47.0135L77.2092 46.5937L78.9349 48.76L78.695 49.9524L76.7252 47.3578L73.6653 49.0833Z" fill="white"/>
<path d="M76.2116 54.3354L75.1973 53.9156L74.5112 55.5949L73.6147 55.2297L74.2966 53.5503L73.2864 53.1305L72.4447 55.1331L71.5439 54.7678L72.7267 51.871L77.4533 53.7938L76.2664 56.6907L75.3699 56.3254L76.2116 54.3354Z" fill="white"/>
<path d="M72.4828 63.2695L71.6831 62.7321L72.4028 61.6196L68.9304 59.386L69.4523 58.58L72.9247 60.8135L73.6486 59.7009L74.4652 60.2257L72.4828 63.2695Z" fill="white"/>
<path d="M64.6791 66.7962C64.0183 66.1664 63.9762 65.163 64.9064 64.1974C65.1665 63.9147 65.4826 63.6889 65.8347 63.5343C66.1868 63.3796 66.5672 63.2995 66.9519 63.299L67.2297 64.2352C66.9277 64.2266 66.6272 64.2795 66.3464 64.3906C66.0656 64.5018 65.8105 64.6689 65.5966 64.8817C65.1337 65.3645 65.0453 65.8138 65.302 66.0615C65.5588 66.3092 65.9418 66.1706 66.4721 65.7634C67.6296 64.8775 68.3619 64.8985 68.9175 65.4317C69.4731 65.9649 69.5951 67.0271 68.7197 67.9507C68.2863 68.4161 67.7018 68.7135 67.0698 68.7904L66.7499 67.9214C67.2304 67.8611 67.6759 67.6389 68.0126 67.2916C68.3703 66.9221 68.5766 66.4981 68.2819 66.2126C67.9873 65.9271 67.7348 66.0951 67.1371 66.5359C66.2574 67.1698 65.4662 67.5519 64.6791 66.7962Z" fill="white"/>
<path d="M62.8022 71.6578L62.1709 70.7678L60.6935 71.809L60.1338 71.0197L61.6111 69.9785L60.9798 69.0884L59.2036 70.3479L58.6438 69.5544L61.207 67.7491L64.1533 71.9013L61.59 73.7108L61.0303 72.9173L62.8022 71.6578Z" fill="white"/>
<path d="M53.3532 73.3414L55.3103 72.4723L55.2598 71.4353L56.2531 71.0155L56.4088 76.5196L55.6091 76.8722L51.6233 73.0643L52.6124 72.6445L53.3532 73.3414ZM54.0855 74.0761L55.466 75.4532L55.365 73.5093L54.0855 74.0761Z" fill="white"/>
<path d="M47.2964 79.4334L47.0691 78.4888L48.3612 78.1823L47.4058 74.1728L48.3444 73.9503L49.2998 77.9598L50.592 77.6533L50.8192 78.5937L47.2964 79.4334Z" fill="white"/>
</svg>
