<svg width="48" height="48" viewBox="0 0 48 48" fill="none" xmlns="http://www.w3.org/2000/svg">
<rect width="48" height="48" fill="#323238"/>
<g clip-path="url(#clip0_61385:212)">
<path d="M36.5251 18.8108C36.5697 17.7824 36.2189 16.7777 35.5498 16.0172C34.8808 15.2566 33.948 14.8023 32.9563 14.754C30.2849 14.6242 27.5607 14.5712 24.7783 14.5712H23.9107C21.1336 14.5712 18.404 14.6214 15.7327 14.754C14.7407 14.8056 13.8088 15.2625 13.1409 16.0246C12.4729 16.7867 12.1232 17.7921 12.1683 18.8209C12.0484 20.6043 11.9946 22.3804 11.9999 24.1611C12.0052 25.9418 12.0484 27.7207 12.1639 29.5059C12.1168 30.5362 12.4654 31.5439 13.1333 32.3083C13.8012 33.0727 14.7339 33.5317 15.7274 33.5847C18.5336 33.72 21.4131 33.7794 24.3401 33.7748C27.2718 33.7846 30.1427 33.7212 32.9527 33.5847C33.9463 33.5326 34.8795 33.0746 35.5482 32.3109C36.2168 31.5472 36.5665 30.5399 36.5207 29.5096C36.6362 27.7243 36.6891 25.9445 36.6847 24.1602C36.6941 22.3771 36.6409 20.5939 36.5251 18.8108ZM21.9782 29.0653V19.2414L28.9704 24.1511L21.9782 29.0653Z" fill="white"/>
</g>
<defs>
<clipPath id="clip0_61385:212">
<rect width="24.6857" height="19.2" fill="white" transform="translate(12 14.5712)"/>
</clipPath>
</defs>
</svg>
